# Blender v2.93.4 OBJ File: ''
# www.blender.org
mtllib puck.mtl
o Cylinder
v 0.315248 -0.086196 -0.471802
v 0.401235 0.086196 -0.401235
v 0.471802 -0.086196 -0.315248
v 0.401235 0.086196 0.401235
v 0.000000 0.086196 0.567432
v 0.110700 -0.086196 0.556529
v 0.315248 -0.086196 0.471802
v 0.556529 -0.086196 -0.110700
v 0.567432 0.086196 0.000000
v 0.556529 -0.086196 0.110700
v -0.401235 0.086196 0.401235
v -0.315248 -0.086196 0.471802
v -0.110700 -0.086196 0.556529
v 0.471802 -0.086196 0.315248
v -0.567432 0.086196 0.000000
v -0.556529 -0.086196 0.110700
v -0.471802 -0.086196 0.315248
v -0.401235 0.086196 -0.401235
v -0.471802 -0.086196 -0.315248
v -0.556529 -0.086196 -0.110700
v 0.000000 0.086196 -0.567432
v -0.110700 -0.086196 -0.556529
v -0.315248 -0.086196 -0.471802
v 0.110700 -0.086196 -0.556529
v 0.000000 0.086196 0.000000
vt 0.906250 1.000000
vt 0.875000 0.500000
vt 0.843750 1.000000
vt 0.750000 0.010000
vt 0.593750 1.000000
vt 0.625000 0.500000
vt 0.781250 1.000000
vt 0.750000 0.500000
vt 0.718750 1.000000
vt 0.500000 0.500000
vt 0.406250 1.000000
vt 0.468750 1.000000
vt 0.656250 1.000000
vt 0.510000 0.250000
vt 0.343750 1.000000
vt 0.375000 0.500000
vt 0.531250 1.000000
vt 0.250000 0.500000
vt 0.156250 1.000000
vt 0.218750 1.000000
vt 0.750000 0.490000
vt 0.093750 1.000000
vt 0.125000 0.500000
vt 0.281250 1.000000
vt 1.000000 0.500000
vt 0.968750 1.000000
vt 0.990000 0.250000
vt 0.031250 1.000000
vt 0.000000 0.500000
vt 0.750000 0.250000
vt 0.919706 0.419706
vt 0.919706 0.080294
vt 0.580294 0.080294
vt 0.580294 0.419706
vn 0.7057 -0.0631 -0.7057
vn 0.3761 0.1841 0.9081
vn 0.9980 -0.0631 -0.0000
vn -0.3761 0.1841 0.9081
vn 0.7057 -0.0631 0.7057
vn -0.9081 0.1841 0.3761
vn 0.0000 -0.0631 0.9980
vn -0.9081 0.1841 -0.3761
vn -0.7057 -0.0631 0.7057
vn -0.3761 0.1841 -0.9081
vn -0.9980 -0.0631 -0.0000
vn -0.7057 -0.0631 -0.7057
vn 0.3761 0.1841 -0.9081
vn 0.9081 0.1841 0.3761
vn 0.9081 0.1841 -0.3761
vn 0.0000 -0.0631 -0.9980
vn -0.0000 1.0000 0.0000
usemtl None.001
s 1
f 1/1/1 2/2/1 3/3/1
f 5/4/2 7/5/2 4/6/2
f 8/7/3 9/8/3 10/9/3
f 5/10/4 12/11/4 13/12/4
f 14/13/5 4/6/5 7/5/5
f 15/14/6 17/15/6 11/16/6
f 6/17/7 5/10/7 13/12/7
f 15/18/8 19/19/8 20/20/8
f 12/11/9 11/16/9 17/15/9
f 21/21/10 23/22/10 18/23/10
f 16/24/11 15/18/11 20/20/11
f 19/19/12 18/23/12 23/22/12
f 21/25/13 1/1/13 24/26/13
f 9/8/14 14/13/14 10/9/14
f 9/27/15 3/3/15 2/2/15
f 22/28/16 21/29/16 24/26/16
f 21/21/17 25/30/17 2/31/17
f 2/31/17 25/30/17 9/27/17
f 9/27/17 25/30/17 4/32/17
f 4/32/17 25/30/17 5/4/17
f 5/4/17 25/30/17 11/33/17
f 11/33/17 25/30/17 15/14/17
f 15/14/17 25/30/17 18/34/17
f 18/34/17 25/30/17 21/21/17
f 5/4/2 6/17/2 7/5/2
f 5/10/4 11/33/4 12/11/4
f 15/14/6 16/24/6 17/15/6
f 15/18/8 18/34/8 19/19/8
f 21/21/10 22/28/10 23/22/10
f 21/25/13 2/31/13 1/1/13
f 9/8/14 4/32/14 14/13/14
f 9/27/15 8/7/15 3/3/15
